<?xml version="1.0" encoding="UTF-8"?>
<!-- Created with Inkscape (http://www.inkscape.org/) -->
<svg width="182.78mm" height="45.119mm" version="1.1" viewBox="0 0 182.78 45.119" xmlns="http://www.w3.org/2000/svg" xmlns:xlink="http://www.w3.org/1999/xlink">
 <g transform="translate(-.0047076 .092636)">
  <path d="m105.7-0.091758c-0.15875-0.0088-0.44948 0.04861-0.87281 0.17208-0.54093 0.16463-1.0115 0.35316-1.4113 0.56482-0.39981 0.21167-0.49382 0.34054-0.28215 0.38758 2.587 0.635 5.1975 1.5407 7.8316 2.7166 0.0706 0.02352 0.1297 0.01191 0.17674-0.03514 0.047-0.04704 0.0703-0.10618 0.0703-0.17673 0-0.07055-0.0354-0.11756-0.10593-0.14108-0.77611-0.44685-1.9401-1.1994-3.4923-2.2577-0.39981-0.28222-0.99974-0.682-1.7994-1.1994-0.0235-0.01765-0.0618-0.02807-0.11472-0.03101zm-86.739 0.20774c-0.07056 0-0.10594 0.07025-0.10594 0.21136 0 0.14111 0.03538 0.21187 0.10594 0.21187 0.82315 0 1.4231 0.07025 1.7994 0.21136 0.39981 0.11759 0.67021 0.34098 0.81132 0.67024 0.14111 0.32926 0.21136 0.8468 0.21136 1.5524v16.334c0 0.70556-0.07024 1.2347-0.21136 1.5875-0.14111 0.32926-0.39988 0.55265-0.77618 0.67024-0.3763 0.11759-0.98784 0.17622-1.8345 0.17622-0.07056 0-0.10594 0.07076-0.10594 0.21187 0 0.14111 0.03538 0.21136 0.10594 0.21136h15.029c0.21167 0 0.35267-0.03538 0.42323-0.10594 0.07055-0.09407 0.10594-0.23508 0.10594-0.42323 0-1.4817 0.11725-3.0692 0.35243-4.7625 0-0.02352-0.03538-0.04676-0.10594-0.07028-0.04704-0.04704-0.10566-0.0708-0.17622-0.0708-0.09407 0-0.14108 0.02376-0.14108 0.0708-0.32926 1.4582-0.94081 2.5867-1.8345 3.3864-0.87019 0.77611-1.9755 1.1643-3.3161 1.1643h-2.2929c-0.96426 0-1.6112-0.15263-1.9405-0.45837-0.30574-0.30574-0.45837-0.88191-0.45837-1.7286v-8.0791h3.7744c1.27 0 2.1873 0.24715 2.7518 0.74104 0.58796 0.47037 0.88212 1.2113 0.88212 2.2226 0 0.04704 0.07025 0.07028 0.21136 0.07028 0.14111 3e-6 0.21187-0.02323 0.21187-0.07028 0-0.42333-0.02376-1.0111-0.0708-1.7637l-0.03514-1.5875 0.03514-2.9636c0-0.04704-0.07024-0.07028-0.21136-0.07028-0.11759 0-0.17673 0.02323-0.17673 0.07028 0 0.87018-0.28202 1.5171-0.84646 1.9405-0.56445 0.39981-1.4464 0.59944-2.6458 0.59944h-3.8804v-7.1613c0-0.84667 0.17639-1.4112 0.52917-1.6934 0.35278-0.30574 1.0462-0.45837 2.081-0.45837h1.7994c1.223 0 2.2105 0.34116 2.9631 1.0232 0.75259 0.65852 1.2115 1.6345 1.3761 2.928 0.02352 0.07055 0.09376 0.10594 0.21136 0.10594 0.14111-0.02352 0.21187-0.07052 0.21187-0.14108l-0.0708-4.4452c0-0.21167-0.11725-0.31729-0.35243-0.31729zm30.374 5.1149c-1.223 0-2.3758 0.25877-3.4577 0.77618-1.0819 0.49389-2.128 1.2818-3.1393 2.3637v-2.0464c0-0.28222-0.047-0.45861-0.14108-0.52917-0.07056-0.09407-0.24694-0.14108-0.52917-0.14108l-1.9404 0.03566-2.2929-0.03566c-0.07056 0-0.10594 0.07076-0.10594 0.21188 0 0.14111 0.03538 0.21187 0.10594 0.21187 0.68204 0 1.1758 0.07024 1.4816 0.21136 0.32926 0.11759 0.55265 0.34098 0.67024 0.67024 0.11759 0.32926 0.17622 0.8468 0.17622 1.5524v10.795c0 0.70556-0.07025 1.2226-0.21136 1.5518-0.11759 0.32926-0.34098 0.56479-0.67024 0.7059-0.32926 0.11759-0.8468 0.17622-1.5524 0.17622-0.04704 0-0.0708 0.07076-0.0708 0.21187 0 0.14111 0.02376 0.21136 0.0708 0.21136 0.65852 0 1.1877-0.01161 1.5875-0.03514l2.0107-0.03514 2.1167 0.03514c0.3763 0.02352 0.89384 0.03514 1.5524 0.03514 0.07055 0 0.10594-0.07025 0.10594-0.21136 0-0.14111-0.03538-0.21187-0.10594-0.21187-0.65852 0-1.1523-0.07076-1.4816-0.21188-0.30574-0.14111-0.51751-0.37612-0.6351-0.70538-0.09407-0.35278-0.14108-0.88194-0.14108-1.5875v-10.019c0.8937-1.0819 1.7756-1.846 2.6458-2.2929 0.8937-0.44685 1.8459-0.67024 2.8572-0.67024 1.3641 0 2.4224 0.43516 3.175 1.3053 0.75259 0.84667 1.1291 2.3988 1.1291 4.6566v7.0202c0 0.70556-0.05862 1.2347-0.17622 1.5875-0.11759 0.32926-0.35312 0.56427-0.7059 0.70538-0.32926 0.14111-0.83467 0.21188-1.5167 0.21188-0.04703 0-0.07079 0.07076-0.07079 0.21187 0 0.14111 0.02376 0.21136 0.07079 0.21136 0.58796 0 1.058-0.01161 1.4108-0.03514l2.1875-0.03514 1.8697 0.03514c0.32926 0.02352 0.78766 0.03514 1.3756 0.03514 0.04704 0 0.0708-0.07025 0.0708-0.21136 0-0.14111-0.02376-0.21187-0.0708-0.21187-0.56445 0-0.97585-0.05862-1.2346-0.17622-0.2587-0.11759-0.43509-0.34098-0.52917-0.67024-0.09407-0.35278-0.14108-0.88194-0.14108-1.5875v-8.1494c0-2.0461-0.54079-3.5396-1.6226-4.4803-1.0583-0.96426-2.4341-1.4464-4.1274-1.4464zm19.191 0c-1.8109 0-3.4692 0.37654-4.9744 1.1291-1.4817 0.75259-2.6456 1.7872-3.4923 3.1042-0.84667 1.2935-1.2702 2.7516-1.2702 4.3744 0 1.3641 0.3174 2.7166 0.9524 4.0571 0.635 1.3406 1.6701 2.4575 3.1047 3.3512 1.4582 0.8937 3.3044 1.3405 5.5387 1.3405 1.952 0 3.8332-0.31739 5.6441-0.95239 0.21167-0.09408 0.34105-0.17646 0.38809-0.24702 0.04704-0.07055 0.08242-0.19994 0.10594-0.38809l0.38809-3.7393c0-0.07055-0.07076-0.11756-0.21187-0.14108-0.11759-0.02352-0.18784 0.01185-0.21136 0.10594-0.56444 1.6463-1.317 2.8573-2.2577 3.6334-0.94074 0.77611-2.0936 1.1643-3.4577 1.1643-1.5052 0-2.7869-0.42302-3.8452-1.2697-1.0348-0.84667-1.8106-1.9288-2.328-3.2458-0.49389-1.3406-0.74104-2.74-0.74104-4.1982 0-1.4346 0.24715-2.7164 0.74104-3.8452 0.51741-1.1524 1.223-2.046 2.1167-2.681 0.91722-0.635 1.9756-0.9524 3.175-0.9524 3.0574 0 5.1503 1.5637 6.2792 4.6917 0.02352 0.09407 0.09428 0.12946 0.21187 0.10594 0.14111-0.02352 0.21136-0.07052 0.21136-0.14108l-0.28215-3.6339c-0.02352-0.18815-0.05838-0.31702-0.10542-0.38757-0.04704-0.07055-0.15318-0.14132-0.31781-0.21187-0.635-0.32926-1.4699-0.57641-2.5048-0.74104-1.0113-0.18815-1.9635-0.28215-2.8572-0.28215zm87.524 0c-1.5522 0-2.881 0.38816-3.9863 1.1643-1.0818 0.77611-1.6232 1.8344-1.6232 3.175 0 0.77611 0.18853 1.4579 0.56482 2.0459 0.39982 0.56444 0.88198 1.0466 1.4464 1.4464 0.56444 0.3763 1.3049 0.81146 2.2221 1.3053 0.89371 0.49389 1.623 0.94067 2.1875 1.3405 0.56444 0.3763 1.035 0.85846 1.4113 1.4464 0.37629 0.56445 0.5643 1.223 0.5643 1.9756 0 0.96426-0.28253 1.682-0.84697 2.1523-0.56445 0.44685-1.2346 0.67024-2.0107 0.67024-1.1994 0-2.2932-0.4943-3.2809-1.4821-0.96426-1.0113-1.6814-2.199-2.1518-3.5631-0.047-0.09408-0.12943-0.12894-0.24702-0.10542-0.11759 0.02352-0.17621 0.08214-0.17621 0.17622l0.31729 3.669c0 0.35278 0.094 0.58779 0.28215 0.70538 0.54093 0.3763 1.2116 0.67045 2.0112 0.88212 0.82315 0.23518 1.6813 0.35243 2.575 0.35243 1.1994 0 2.2578-0.21125 3.175-0.63458 0.91722-0.42333 1.6228-0.9995 2.1167-1.7286 0.51741-0.75259 0.77618-1.5759 0.77618-2.4696 0-0.82315-0.21177-1.5287-0.6351-2.1167-0.39982-0.61148-0.90522-1.1174-1.5167-1.5172-0.58797-0.39981-1.3643-0.8466-2.3285-1.3405-0.94075-0.49389-1.6695-0.90529-2.187-1.2346-0.51741-0.35278-0.96471-0.78794-1.341-1.3053-0.35277-0.51741-0.52916-1.1173-0.52916-1.7994 0-0.77611 0.21177-1.3993 0.6351-1.8697 0.44685-0.47037 1.0938-0.70538 1.9404-0.70538 0.82315 0 1.5641 0.23501 2.2226 0.70538 0.68203 0.44685 1.2228 0.98816 1.6226 1.6232 0.42334 0.635 0.69373 1.2112 0.81133 1.7286 0.047 0.07056 0.12942 0.0938 0.24701 0.07028s0.17622-0.08214 0.17622-0.17622l-0.14108-3.1399c-0.0235-0.16463-0.0705-0.2824-0.14108-0.35295-0.047-0.09407-0.17642-0.18808-0.38809-0.28215-1.1994-0.54092-2.4574-0.81132-3.7744-0.81132zm-47.695 0.03514c-1.5522 0-2.9871 0.4003-4.3041 1.1999-1.317 0.79963-2.3754 1.8928-3.175 3.2804-0.77612 1.3641-1.1643 2.8576-1.1643 4.4803 0 1.4581 0.30577 2.8223 0.91725 4.0923 0.61149 1.27 1.5288 2.3051 2.7518 3.1047 1.223 0.77611 2.7048 1.1638 4.4452 1.1638 1.9756 0 3.7864-0.65855 5.4327-1.9756 0.047-0.07056 0.0349-0.1408-0.0357-0.21136-0.047-0.09408-0.10566-0.14108-0.17621-0.14108h-0.0351c-0.51741 0.3763-1.1173 0.65831-1.7994 0.84646-0.65851 0.16463-1.3171 0.24701-1.9756 0.24701-2.0932 0-3.7393-0.78794-4.9387-2.3637s-1.7994-3.61-1.7994-6.103c0-0.51741 0.047-1.176 0.14107-1.9756l10.231-0.03514c0.16463 0 0.27026-0.047 0.3173-0.14108 0.0706-0.11759 0.10593-0.3056 0.10593-0.56431 0-1.4817-0.42354-2.6694-1.2702-3.5631-0.82315-0.8937-2.0457-1.341-3.6685-1.341zm34.219 0c-1.5522 0-2.9871 0.4003-4.3041 1.1999-1.317 0.79963-2.3754 1.8928-3.175 3.2804-0.77612 1.3641-1.1638 2.8576-1.1638 4.4803 0 1.4581 0.30578 2.8223 0.91726 4.0923 0.61148 1.27 1.5283 2.3051 2.7512 3.1047 1.223 0.77611 2.7048 1.1638 4.4452 1.1638 1.9756 0 3.7864-0.65855 5.4327-1.9756 0.047-0.07056 0.0354-0.1408-0.0351-0.21136-0.047-0.09408-0.10618-0.14108-0.17673-0.14108h-0.0351c-0.51741 0.3763-1.1168 0.65831-1.7989 0.84646-0.65852 0.16463-1.3171 0.24701-1.9756 0.24701-2.0932 0-3.7398-0.78794-4.9392-2.3637-1.1994-1.5757-1.7989-3.61-1.7989-6.103 0-0.51741 0.047-1.176 0.14108-1.9756l10.23-0.03514c0.16463 0 0.27078-0.047 0.31781-0.14108 0.0706-0.11759 0.10542-0.3056 0.10542-0.56431 0-1.4817-0.42302-2.6694-1.2697-3.5631-0.82315-0.8937-2.0462-1.341-3.669-1.341zm-19.156 0.28267c-0.65852 0-1.3519 0.03486-2.081 0.10542-0.25871 0.02352-0.57662 0.04728-0.95291 0.0708-0.35278 0.02352-0.75256 0.03514-1.1994 0.03514-0.54092 0-1.2581-0.02326-2.1518-0.07028l-1.6226-0.03566c-0.0706 0-0.10594 0.07076-0.10594 0.21188 0 0.14111 0.0354 0.21187 0.10594 0.21187 0.70556 0 1.2231 0.07024 1.5524 0.21136 0.35278 0.11759 0.58779 0.34098 0.70538 0.67024 0.14111 0.32926 0.21136 0.8468 0.21136 1.5524v10.795c0 0.70556-0.0703 1.2347-0.21136 1.5875-0.11759 0.32926-0.3526 0.55265-0.70538 0.67024-0.32926 0.11759-0.87056 0.17622-1.6232 0.17622-0.047 0-0.0703 0.07076-0.0703 0.21187 0 0.14111 0.0232 0.21136 0.0703 0.21136 0.70556 0 1.2585-0.01161 1.6583-0.03514l2.1869-0.03514 2.2578 0.03514c0.37629 0.02352 0.89384 0.03514 1.5524 0.03514 0.0705 0 0.10594-0.07025 0.10594-0.21136 0-0.14111-0.0354-0.21187-0.10594-0.21187-0.75259 0-1.2934-0.05862-1.6226-0.17622-0.32926-0.11759-0.55265-0.34098-0.67024-0.67024-0.1176-0.32926-0.17674-0.85843-0.17674-1.5875v-5.0095c0.25871 0.02352 0.63524 0.03514 1.1291 0.03514s0.98768-0.03538 1.4816-0.10594c1.4111 2.4694 2.6342 4.4097 3.669 5.8208 1.0348 1.4111 1.7404 2.1167 2.1167 2.1167h4.6566c0.0706 0 0.10594-0.07025 0.10594-0.21136 0-0.14111-0.0354-0.21187-0.10594-0.21187-0.84667 0-1.6578-0.24715-2.434-0.74104-0.77611-0.51741-1.6227-1.364-2.5399-2.5399-0.89371-1.1759-1.9874-2.8337-3.2809-4.9739 0.96426-0.49389 1.7168-1.1292 2.2577-1.9053 0.56445-0.79963 0.84646-1.67 0.84646-2.6107 0-1.1054-0.43516-1.9519-1.3054-2.5399-0.84666-0.58796-2.0814-0.8816-3.7042-0.8816zm-45.72 0.10542c-0.07056 0-0.10594 0.07076-0.10594 0.21188 0 0.14111 0.03538 0.21187 0.10594 0.21187 0.72907 0 1.2582 0.07024 1.5875 0.21136 0.35278 0.11759 0.58779 0.34098 0.70538 0.67024 0.14111 0.32926 0.21187 0.8468 0.21187 1.5524v10.795c0 0.70556-0.07076 1.2347-0.21187 1.5875-0.11759 0.32926-0.3526 0.55265-0.70538 0.67024-0.35278 0.11759-0.9057 0.17622-1.6583 0.17622-0.04704 0-0.07028 0.07076-0.07028 0.21187 0 0.14111 0.02326 0.21136 0.07028 0.21136 0.70556 0 1.2585-0.01161 1.6583-0.03514l2.1869-0.03514 2.2226 0.03514c0.3763 0.02352 0.90546 0.03514 1.5875 0.03514 0.07056 0 0.10594-0.07025 0.10594-0.21136 0-0.14111-0.03538-0.21187-0.10594-0.21187-0.75259 0-1.305-0.05862-1.6578-0.17622-0.32926-0.11759-0.55265-0.34098-0.67024-0.67024-0.11759-0.35278-0.17673-0.88194-0.17673-1.5875v-5.1155h9.4196v5.1155c0 0.70556-0.05914 1.2347-0.17673 1.5875-0.11759 0.32926-0.3526 0.55265-0.70538 0.67024-0.32926 0.11759-0.87004 0.17622-1.6226 0.17622-0.07056 0-0.10594 0.07076-0.10594 0.21187 0 0.14111 0.03538 0.21136 0.10594 0.21136 0.68204 0 1.2112-0.01161 1.5875-0.03514l2.2577-0.03514 2.1518 0.03514c0.39981 0.02352 0.95222 0.03514 1.6578 0.03514 0.047 0 0.0708-0.07025 0.0708-0.21136 0-0.14111-0.0238-0.21187-0.0708-0.21187-0.7526 0-1.305-0.05862-1.6578-0.17622-0.35278-0.11759-0.59993-0.34098-0.74104-0.67024-0.11759-0.35278-0.17622-0.88194-0.17622-1.5875v-10.795c0-0.70556 0.05862-1.2231 0.17622-1.5524 0.14111-0.32926 0.38826-0.55265 0.74104-0.67024 0.35278-0.14111 0.90519-0.21136 1.6578-0.21136 0.047 0 0.0708-0.07076 0.0708-0.21187 0-0.14111-0.0238-0.21188-0.0708-0.21188l-1.6578 0.03566c-0.8937 0.04704-1.6109 0.07028-2.1518 0.07028-0.61148 0-1.364-0.02326-2.2577-0.07028l-1.5875-0.03566c-0.07056 0-0.10594 0.07076-0.10594 0.21188 0 0.14111 0.03538 0.21187 0.10594 0.21187 0.72908 0 1.2699 0.07024 1.6226 0.21136 0.35278 0.14111 0.58779 0.38826 0.70538 0.74104 0.11759 0.32926 0.17673 0.8468 0.17673 1.5524v4.9036h-9.4196v-4.9036c0-0.70555 0.05914-1.2231 0.17673-1.5524 0.14111-0.35278 0.37612-0.59993 0.70538-0.74104 0.35278-0.14111 0.89357-0.21136 1.6226-0.21136 0.07056 0 0.10594-0.07076 0.10594-0.21187 0-0.14111-0.03538-0.21188-0.10594-0.21188l-1.5518 0.03566c-0.94074 0.04704-1.6938 0.07028-2.2583 0.07028-0.56444 0-1.2932-0.02326-2.1869-0.07028zm29.527 0.38809c1.0583 0 1.8579 0.36492 2.3988 1.094 0.54093 0.70556 0.79971 1.7285 0.77619 3.0691l-7.6202 0.14108c0.30574-1.3641 0.84705-2.4224 1.6232-3.175 0.77611-0.75259 1.7167-1.1291 2.822-1.1291zm34.219 0c1.0583 0 1.8584 0.36492 2.3993 1.094 0.54093 0.70556 0.79918 1.7285 0.77567 3.0691l-7.6197 0.14108c0.30574-1.3641 0.84652-2.4224 1.6226-3.175 0.77612-0.75259 1.7167-1.1291 2.8221-1.1291zm-18.908 0.0708c2.0932 0 3.1393 1.2701 3.1393 3.8101 0 1.2465-0.28201 2.187-0.84646 2.8221-0.54093 0.635-1.5169 0.9524-2.928 0.9524-0.39981 0-0.85873-0.02326-1.3761-0.07028v-5.0447c0-0.94074 0.12939-1.5877 0.38809-1.9404 0.25871-0.35278 0.80001-0.52917 1.6232-0.52917zm-103.66 16.442c-0.07056 0-0.10542 0.07024-0.10542 0.21136 0 0.14111 0.03486 0.21187 0.10542 0.21187 0.82315 0 1.4231 0.07024 1.7994 0.21136 0.39981 0.11759 0.67021 0.34098 0.81132 0.67024 0.14111 0.32926 0.21187 0.8468 0.21187 1.5524v16.334c0 0.70556-0.07076 1.2347-0.21187 1.5875-0.14111 0.32926-0.39988 0.55265-0.77618 0.67024-0.3763 0.11759-0.98785 0.17622-1.8345 0.17622-0.07056 0-0.10542 0.07076-0.10542 0.21187 0 0.14111 0.03486 0.21136 0.10542 0.21136h15.029c0.21167 0 0.35267-0.03538 0.42323-0.10594 0.07055-0.09408 0.10594-0.23508 0.10594-0.42323 0-1.4817 0.11776-3.0692 0.35295-4.7625 0-0.02352-0.03538-0.04676-0.10594-0.07028-0.04704-0.04704-0.10566-0.0708-0.17622-0.0708-0.09408 0-0.1416 0.02376-0.1416 0.0708-0.32926 1.4582-0.94029 2.5867-1.834 3.3864-0.87018 0.77611-1.9755 1.1643-3.3161 1.1643h-2.2934c-0.96426 0-1.6107-0.15263-1.9399-0.45837-0.30574-0.30574-0.45889-0.88191-0.45889-1.7286v-8.0791h3.775c1.27 0 2.1868 0.24715 2.7513 0.74104 0.58796 0.47037 0.88212 1.2113 0.88212 2.2226 0 0.04704 0.07076 0.07028 0.21187 0.07028 0.14111 0 0.21136-0.02326 0.21136-0.07028 0-0.42333-0.02326-1.0111-0.07028-1.7637l-0.03565-1.5875 0.03565-2.9636c0-0.04704-0.07076-0.07028-0.21187-0.07028-0.11759 0-0.17622 0.02326-0.17622 0.07028 0 0.87018-0.28253 1.5171-0.84698 1.9404-0.56445 0.39981-1.4464 0.59945-2.6458 0.59945h-3.8804v-7.1613c0-0.84667 0.17639-1.4112 0.52917-1.6934 0.35278-0.30574 1.0467-0.45837 2.0815-0.45837h1.7989c1.223 0 2.211 0.34115 2.9636 1.0232 0.75259 0.65852 1.211 1.6345 1.3756 2.928 0.02352 0.07056 0.09428 0.10594 0.21187 0.10594 0.14111-0.02352 0.21136-0.07052 0.21136-0.14108l-0.07028-4.4452c0-0.21167-0.11776-0.31729-0.35295-0.31729zm46.743 5.1149c-1.8109 0-3.4692 0.37654-4.9744 1.1291-1.4817 0.75259-2.6456 1.7872-3.4923 3.1042-0.84667 1.2935-1.2702 2.7516-1.2702 4.3744 0 1.3641 0.3174 2.7166 0.9524 4.0571 0.635 1.3406 1.6701 2.4575 3.1047 3.3512 1.4581 0.8937 3.3044 1.3405 5.5387 1.3405 1.952 0 3.8332-0.3174 5.6441-0.9524 0.21167-0.09408 0.34105-0.17646 0.38809-0.24701 0.04704-0.07056 0.08242-0.19994 0.10594-0.38809l0.38809-3.7393c0-0.07056-0.07076-0.11756-0.21187-0.14108-0.1176-0.02352-0.18784 0.01185-0.21136 0.10594-0.56445 1.6463-1.317 2.8573-2.2577 3.6334-0.94074 0.77611-2.0931 1.1643-3.4572 1.1643-1.5052 0-2.7874-0.42302-3.8458-1.2697-1.0348-0.84667-1.8106-1.9288-2.328-3.2458-0.49389-1.3406-0.74104-2.74-0.74104-4.1982 0-1.4346 0.24715-2.7164 0.74104-3.8452 0.51741-1.1524 1.223-2.046 2.1167-2.681 0.91722-0.635 1.9756-0.9524 3.175-0.9524 3.0574 0 5.1503 1.5637 6.2792 4.6917 0.02352 0.09407 0.09428 0.12946 0.21187 0.10594 0.14111-0.02352 0.21187-0.07052 0.21187-0.14108l-0.28267-3.6339c-0.02352-0.18815-0.05838-0.31702-0.10542-0.38757-0.04704-0.07056-0.15318-0.14132-0.31781-0.21187-0.635-0.32926-1.4699-0.57641-2.5048-0.74104-1.0113-0.18815-1.9635-0.28216-2.8572-0.28216zm53.516 0c-1.5522 0-2.881 0.38816-3.9863 1.1643-1.0818 0.77611-1.6226 1.8344-1.6226 3.175 0 0.77611 0.18801 1.4579 0.56431 2.0459 0.39981 0.56445 0.88198 1.0466 1.4464 1.4464 0.56444 0.3763 1.3054 0.81146 2.2226 1.3053 0.89371 0.49389 1.6225 0.94067 2.187 1.3405 0.56445 0.3763 1.035 0.85846 1.4113 1.4464 0.3763 0.56444 0.56431 1.223 0.56431 1.9756 0 0.96426-0.28201 1.682-0.84646 2.1523-0.56444 0.44685-1.2346 0.67024-2.0107 0.67024-1.1994 0-2.2932-0.4943-3.2809-1.4821-0.96426-1.0113-1.682-2.199-2.1523-3.5631-0.047-0.09407-0.1289-0.12894-0.2465-0.10542-0.11759 0.02352-0.17673 0.08214-0.17673 0.17622l0.31781 3.669c0 0.35278 0.094 0.58779 0.28215 0.70538 0.54093 0.3763 1.2111 0.67045 2.0107 0.88212 0.82315 0.23518 1.6813 0.35243 2.575 0.35243 1.1994 0 2.2578-0.21125 3.175-0.63459 0.91722-0.42333 1.6228-0.9995 2.1167-1.7286 0.5174-0.75259 0.77618-1.5759 0.77618-2.4696 0-0.82315-0.21125-1.5287-0.63459-2.1167-0.39982-0.61148-0.90574-1.1174-1.5172-1.5172-0.58796-0.39981-1.3643-0.8466-2.3285-1.3405-0.94074-0.49389-1.6695-0.90529-2.187-1.2345-0.5174-0.35278-0.96419-0.78794-1.3405-1.3053-0.35278-0.51741-0.52917-1.1173-0.52917-1.7994 0-0.77611 0.21177-1.3993 0.6351-1.8697 0.44686-0.47037 1.0933-0.70538 1.9399-0.70538 0.82315 0 1.5641 0.23501 2.2226 0.70538 0.68204 0.44685 1.2228 0.98816 1.6226 1.6232 0.42333 0.635 0.69373 1.2112 0.81132 1.7286 0.047 0.07056 0.12942 0.0938 0.24701 0.07028 0.1176-0.02352 0.17674-0.08214 0.17674-0.17622l-0.14108-3.1399c-0.0235-0.16463-0.0705-0.2824-0.14108-0.35295-0.047-0.09407-0.17642-0.18808-0.38809-0.28215-1.1994-0.54093-2.4579-0.81132-3.775-0.81132zm58.314 0c-1.5522 0-2.881 0.38816-3.9863 1.1643-1.0818 0.77611-1.6232 1.8344-1.6232 3.175 0 0.77611 0.18853 1.4579 0.56483 2.0459 0.39981 0.56445 0.88146 1.0466 1.4459 1.4464 0.56445 0.3763 1.3054 0.81146 2.2226 1.3053 0.8937 0.49389 1.623 0.94067 2.1875 1.3405 0.56444 0.3763 1.0345 0.85846 1.4108 1.4464 0.37629 0.56444 0.56482 1.223 0.56482 1.9756 0 0.96426-0.28253 1.682-0.84698 2.1523-0.56444 0.44685-1.2346 0.67024-2.0107 0.67024-1.1994 0-2.2932-0.4943-3.2809-1.4821-0.96426-1.0113-1.6814-2.199-2.1518-3.5631-0.047-0.09407-0.12942-0.12894-0.24701-0.10542-0.1176 0.02352-0.17622 0.08214-0.17622 0.17622l0.31729 3.669c0 0.35278 0.094 0.58779 0.28216 0.70538 0.54092 0.3763 1.2116 0.67045 2.0112 0.88212 0.82315 0.23518 1.6813 0.35243 2.575 0.35243 1.1994 0 2.2578-0.21125 3.175-0.63459 0.91722-0.42333 1.6228-0.9995 2.1167-1.7286 0.51741-0.75259 0.77618-1.5759 0.77618-2.4696 0-0.82315-0.21177-1.5287-0.63511-2.1167-0.39981-0.61148-0.90522-1.1174-1.5167-1.5172-0.58796-0.39981-1.3643-0.8466-2.3285-1.3405-0.94074-0.49389-1.6695-0.90529-2.187-1.2345-0.5174-0.35278-0.9647-0.78794-1.341-1.3053-0.35278-0.51741-0.52917-1.1173-0.52917-1.7994 0-0.77611 0.21177-1.3993 0.63511-1.8697 0.44685-0.47037 1.0938-0.70538 1.9404-0.70538 0.82314 0 1.5641 0.23501 2.2226 0.70538 0.68204 0.44685 1.2228 0.98816 1.6226 1.6232 0.42333 0.635 0.69373 1.2112 0.81132 1.7286 0.047 0.07056 0.12942 0.0938 0.24701 0.07028 0.1176-0.02352 0.17622-0.08214 0.17622-0.17622l-0.14108-3.1399c-0.0235-0.16463-0.0705-0.2824-0.14107-0.35295-0.047-0.09407-0.17643-0.18808-0.3881-0.28215-1.1994-0.54093-2.4574-0.81132-3.7744-0.81132zm-13.476 0.03514c-1.5522 0-2.9871 0.4003-4.3041 1.1999-1.317 0.79963-2.3754 1.8928-3.175 3.2804-0.77611 1.3641-1.1638 2.8576-1.1638 4.4803 0 1.4581 0.30525 2.8223 0.91674 4.0923 0.61148 1.27 1.5288 2.3051 2.7518 3.1047 1.223 0.77611 2.7048 1.1638 4.4452 1.1638 1.9756 0 3.7864-0.65855 5.4328-1.9756 0.047-0.07055 0.0354-0.1408-0.0351-0.21136-0.047-0.09407-0.10618-0.14108-0.17674-0.14108h-0.0351c-0.5174 0.3763-1.1168 0.65831-1.7988 0.84646-0.65852 0.16463-1.3171 0.24701-1.9756 0.24701-2.0932 0-3.7398-0.78794-4.9392-2.3637-1.1994-1.5757-1.7988-3.61-1.7988-6.103 0-0.51741 0.047-1.176 0.14107-1.9756l10.23-0.03514c0.16463 0 0.27025-0.047 0.31729-0.14108 0.0706-0.11759 0.10594-0.3056 0.10594-0.56431 0-1.4817-0.42303-2.6694-1.2697-3.5631-0.82315-0.8937-2.0462-1.341-3.669-1.341zm-126.96 0.38809c-0.04704 0-0.07028 0.07076-0.07028 0.21187 0 0.14111 0.02326 0.21187 0.07028 0.21187 0.54092 0 1.1292 0.19963 1.7642 0.59945 0.635 0.3763 1.2466 1.0116 1.8345 1.9053l3.8804 5.8208-3.2101 4.5155c-0.70555 0.96426-1.4349 1.6814-2.1875 2.1518-0.72908 0.44685-1.4109 0.67024-2.0459 0.67024-0.04704 0-0.07079 0.07076-0.07079 0.21187 0 0.14111 0.02376 0.21136 0.07079 0.21136 0.54093 0 0.94071-0.01162 1.1994-0.03514l1.3053-0.03514 2.2221 0.03514c0.35278 0.02352 0.8587 0.03514 1.5172 0.03514 0.07056 0 0.10594-0.07025 0.10594-0.21136 0-0.14111-0.03538-0.21187-0.10594-0.21187-1.223 0-1.8345-0.34116-1.8345-1.0232 0-0.39981 0.22339-0.92898 0.67024-1.5875l2.7869-4.0923 3.5631 5.3273c0.32926 0.47037 0.49403 0.79939 0.49403 0.98754 0 0.14111-0.10614 0.24674-0.31781 0.31729-0.18815 0.04704-0.51716 0.0708-0.98754 0.0708-0.07056 0-0.10594 0.07076-0.10594 0.21187 0 0.14111 0.03538 0.21136 0.10594 0.21136 0.56444 0 1.0112-0.01162 1.3405-0.03514l2.2226-0.03514 3.1399 0.07028c0.04704 0 0.07028-0.07025 0.07028-0.21136 0-0.14111-0.02326-0.21187-0.07028-0.21187-0.54092 0-1.1292-0.18801-1.7642-0.56431-0.635-0.39981-1.2466-1.0467-1.8345-1.9405l-4.2333-6.2792 2.9285-4.0571c0.72908-0.98778 1.4579-1.705 2.1869-2.1518 0.72908-0.44685 1.423-0.67024 2.0815-0.67024 0.04704 0 0.07028-0.07076 0.07028-0.21187 0-0.14111-0.02326-0.21187-0.07028-0.21187l-1.1994 0.03566c-0.47037 0.04704-0.90553 0.07028-1.3053 0.07028-0.61148 0-1.317-0.02326-2.1167-0.07028l-1.4113-0.03566c-0.07056 0-0.10594 0.07076-0.10594 0.21187 0 0.14111 0.03538 0.21187 0.10594 0.21187 1.1289 0 1.6934 0.3174 1.6934 0.9524 0 0.3763-0.24715 0.92871-0.74104 1.6578l-2.4691 3.7042-3.3161-4.9036c-0.30574-0.44685-0.45888-0.77587-0.45888-0.98754 0-0.16463 0.094-0.27077 0.28215-0.31781 0.18815-0.07056 0.5293-0.10542 1.0232-0.10542 0.04704 0 0.0708-0.07076 0.0708-0.21187 0-0.14111-0.02376-0.21187-0.0708-0.21187l-1.7637 0.03566c-1.1759 0.04704-2.0933 0.07028-2.7518 0.07028-0.21167 0-0.57607-0.02326-1.0935-0.07028zm37.712 0c-0.04704 0-0.07028 0.07076-0.07028 0.21187 0 0.14111 0.02323 0.21187 0.07028 0.21187 0.70556 0 1.2231 0.07025 1.5524 0.21136 0.35278 0.11759 0.58831 0.34098 0.7059 0.67024 0.11759 0.32926 0.17622 0.8468 0.17622 1.5524v10.795c0 0.70556-0.05862 1.2347-0.17622 1.5875-0.1176 0.32926-0.3415 0.55265-0.67076 0.67024-0.32926 0.11759-0.85842 0.17622-1.5875 0.17622-0.04704 0-0.07028 0.07076-0.07028 0.21187 0 0.14111 0.02323 0.21136 0.07028 0.21136h13.9c0.21167 0 0.35267-0.03538 0.42323-0.10594 0.09407-0.09408 0.14108-0.23508 0.14108-0.42323 0-1.905 0.08238-3.4217 0.24701-4.5506 0-0.04704-0.03538-0.08242-0.10594-0.10594-0.04704-0.02352-0.10566-0.03514-0.17622-0.03514-0.09408 0-0.14108 0.02323-0.14108 0.07028-0.35278 1.3876-0.96433 2.4929-1.8345 3.3161-0.84667 0.79963-1.905 1.1994-3.175 1.1994h-1.6934c-0.72908 0-1.2699-0.05862-1.6226-0.17622-0.35278-0.14111-0.59993-0.37612-0.74104-0.70538-0.11759-0.32926-0.17622-0.82304-0.17622-1.4816v-10.619c0-0.70556 0.05862-1.2226 0.17622-1.5518 0.14111-0.35278 0.38826-0.58831 0.74104-0.7059 0.35278-0.14111 0.90519-0.21136 1.6578-0.21136 0.04704 0 0.0708-0.07076 0.0708-0.21187 0-0.14111-0.02376-0.21187-0.0708-0.21187l-1.5524 0.03566c-0.94074 0.04704-1.6933 0.07028-2.2577 0.07028-0.51741 0-1.2462-0.02326-2.1869-0.07028zm16.369 0c-0.04704 0-0.07028 0.07076-0.07028 0.21187 0 0.14111 0.02326 0.21187 0.07028 0.21187 0.54093 0 0.9407 0.07025 1.1994 0.21136 0.2587 0.11759 0.43509 0.34098 0.52917 0.67024 0.09408 0.32926 0.14108 0.8468 0.14108 1.5524v8.9958c0 1.6228 0.5413 2.8813 1.6232 3.775 1.1054 0.87018 2.4927 1.3048 4.1625 1.3048 1.223 0 2.3753-0.24663 3.4572-0.74052 1.0818-0.51741 2.1286-1.317 3.1399-2.3988v2.0459c0 0.30574 0.0354 0.49375 0.10593 0.56431 0.0706 0.07056 0.24695 0.10594 0.52917 0.10594l1.9399-0.03514 2.2934 0.03514c0.0706 0 0.10542-0.07025 0.10542-0.21136 1e-5 -0.14111-0.0349-0.21187-0.10542-0.21187-0.68203 0-1.188-0.05862-1.5172-0.17622-0.30574-0.11759-0.51751-0.34098-0.6351-0.67024-0.11759-0.35278-0.17622-0.88194-0.17622-1.5875v-10.795c0-0.68204 0.0586-1.1874 0.17622-1.5167 0.14111-0.35278 0.37664-0.58831 0.7059-0.7059 0.35278-0.14111 0.86981-0.21136 1.5518-0.21136 0.047 0 0.0708-0.07076 0.0708-0.21187 0-0.14111-0.0238-0.21187-0.0708-0.21187l-1.5875 0.03566c-0.84666 0.04704-1.5168 0.07028-2.0107 0.07028-0.51741 0-1.223-0.02326-2.1167-0.07028l-1.5875-0.03566c-0.047 0-0.0703 0.07076-0.0703 0.21187 0 0.14111 0.0233 0.21187 0.0703 0.21187 0.68204 0 1.1758 0.07025 1.4816 0.21136 0.32926 0.14111 0.55317 0.38826 0.67076 0.74104 0.11759 0.32926 0.17622 0.8468 0.17622 1.5524v10.054c-0.91722 1.0348-1.8229 1.7874-2.7166 2.2577-0.87019 0.44685-1.7991 0.67024-2.7869 0.67024-2.8693 0-4.3036-1.7169-4.3036-5.1506v-7.8316c0-0.70556 0.05862-1.2231 0.17622-1.5524 0.11759-0.35278 0.34098-0.59993 0.67024-0.74104 0.32926-0.14111 0.83519-0.21136 1.5172-0.21136 0.047 0 0.0703-0.07076 0.0703-0.21187 0-0.14111-0.0232-0.21187-0.0703-0.21187l-1.4113 0.03566c-0.8937 0.04704-1.623 0.07028-2.1875 0.07028-0.47037 0-1.0814-0.02326-1.834-0.07028zm35.948 0c-0.047 0-0.0708 0.07076-0.0708 0.21187 0 0.14111 0.0238 0.21187 0.0708 0.21187 0.75259 0 1.305 0.07025 1.6578 0.21136 0.35278 0.11759 0.58831 0.34098 0.7059 0.67024 0.14111 0.32926 0.21136 0.8468 0.21136 1.5524v10.795c0 0.70556-0.0703 1.2347-0.21136 1.5875-0.11759 0.32926-0.35312 0.55265-0.7059 0.67024-0.35278 0.11759-0.90519 0.17622-1.6578 0.17622-0.047 0-0.0708 0.07076-0.0708 0.21187 0 0.14111 0.0238 0.21136 0.0708 0.21136 0.70556 0 1.258-0.01162 1.6578-0.03514l2.1875-0.03514 2.2578 0.03514c0.37629 0.02352 0.90546 0.03514 1.5875 0.03514 0.0705 0 0.10593-0.07025 0.10593-0.21136 0-0.14111-0.0354-0.21187-0.10593-0.21187-0.7526 0-1.3055-0.05862-1.6583-0.17622-0.32926-0.11759-0.55265-0.34098-0.67024-0.67024-0.11759-0.35278-0.17622-0.88194-0.17622-1.5875v-10.724c0-0.70556 0.0586-1.2231 0.17622-1.5524 0.14111-0.35278 0.37664-0.59993 0.7059-0.74104 0.35277-0.14111 0.89356-0.21136 1.6226-0.21136 0.0705 0 0.10593-0.07076 0.10593-0.21187 0-0.14111-0.0354-0.21187-0.10593-0.21187l-1.5524 0.03566c-0.94074 0.04704-1.7049 0.07028-2.2929 0.07028-0.56444 0-1.2938-0.02326-2.1875-0.07028zm8.9958 0c-0.0705 0-0.10593 0.07076-0.10593 0.21187 0 0.14111 0.0354 0.21187 0.10593 0.21187 0.61149 0 1.0936 0.17639 1.4464 0.52917 0.35278 0.32926 0.76418 0.98781 1.2346 1.9756l6.4559 13.546c0.0235 0.09407 0.15291 0.14108 0.38809 0.14108 0.23519 0 0.36457-0.047 0.38809-0.14108l5.2209-13.264c0.3763-0.96426 0.81146-1.6698 1.3054-2.1167 0.51741-0.44685 1.1173-0.67024 1.7994-0.67024 0.047 0 0.0703-0.07076 0.0703-0.21187 0-0.14111-0.0233-0.21187-0.0703-0.21187l-1.3053 0.03566c-0.51741 0.04704-0.98795 0.07028-1.4113 0.07028-0.61148 0-1.27-0.02326-1.9756-0.07028l-1.2697-0.03566c-0.0705 0-0.10593 0.07076-0.10593 0.21187 0 0.14111 0.0354 0.21187 0.10593 0.21187 1.5287 0 2.2929 0.47002 2.2929 1.4108 0 0.35278-0.0824 0.74094-0.24702 1.1643l-3.8452 10.16-5.0446-10.583c-0.18815-0.3763-0.28216-0.72907-0.28216-1.0583 0-0.72907 0.61155-1.0935 1.8345-1.0935 0.047 0 0.0703-0.07076 0.0703-0.21187 0-0.14111-0.0232-0.21187-0.0703-0.21187l-1.5172 0.03566c-0.84667 0.04704-1.5638 0.07028-2.1518 0.07028-0.51741 0-1.1527-0.02326-1.9053-0.07028zm26.811 0.38809c1.0583 0 1.8584 0.36491 2.3993 1.094 0.54092 0.70556 0.79918 1.7285 0.77566 3.0691l-7.6197 0.14108c0.30574-1.3641 0.84653-2.4224 1.6226-3.175 0.77611-0.75259 1.7167-1.1291 2.822-1.1291z" dominant-baseline="central" fill="#23448d" style="font-variant-caps:normal;font-variant-east-asian:normal;font-variant-ligatures:normal;font-variant-numeric:normal"/>
  <text transform="matrix(0 -.96155 1.04 0 0 0)" x="-23.269291" y="8.9646692" dominant-baseline="central" fill="#666666" font-family="'Cormorant Unicase'" font-size="25.897px" font-weight="500" stroke-width=".19423" text-anchor="middle" style="font-variant-caps:normal;font-variant-east-asian:normal;font-variant-ligatures:normal;font-variant-numeric:normal;line-height:1.25" xml:space="preserve"><tspan x="-23.269291" y="8.9646692" fill="#666666" font-family="'Cormorant Unicase'" font-size="25.897px" font-weight="500" stroke-width=".19423" style="font-variant-caps:normal;font-variant-east-asian:normal;font-variant-ligatures:normal;font-variant-numeric:normal">1789</tspan></text>
 </g>
 <style>text {
  font-size: 64px;
  font-family: Arial Black;
  dominant-baseline: central;
  text-anchor: middle;
}</style>
 <style>text {
  font-size: 64px;
  font-family: Arial Black;
  dominant-baseline: central;
  text-anchor: middle;
}</style>
 <style>text {
  font-size: 64px;
  font-family: Arial Black;
  dominant-baseline: central;
  text-anchor: middle;
}</style>
 <style>text {
  font-size: 64px;
  font-family: Arial Black;
  dominant-baseline: central;
  text-anchor: middle;
}</style>
 <style>text {
  font-size: 64px;
  font-family: Arial Black;
  dominant-baseline: central;
  text-anchor: middle;
}</style>
 <style>text {
  font-size: 64px;
  font-family: Arial Black;
  dominant-baseline: central;
  text-anchor: middle;
}</style>
 <style>text {
  font-size: 64px;
  font-family: Arial Black;
  dominant-baseline: central;
  text-anchor: middle;
}</style>
</svg>
